<svg xmlns="http://www.w3.org/2000/svg" viewBox="0 0 279 252"><defs><style>.a{fill:#1d1d1b;}</style></defs><rect class="a" x="90" width="189" height="72" rx="5"/><rect class="a" x="90" y="89.56" width="108" height="72" rx="5"/><rect class="a" x="-81" y="112.5" width="252" height="72" rx="5" transform="translate(-112.5 171) rotate(-90)"/><path class="a" d="M283,202.5H104a5,5,0,0,0-5,5v62a5,5,0,0,0,5,5H283a5,5,0,0,0,5-5v-62A5,5,0,0,0,283,202.5Zm-4,58.88a4.11,4.11,0,0,1-4.12,4.12H112.12a4.11,4.11,0,0,1-4.12-4.12V215.62a4.11,4.11,0,0,1,4.12-4.12H274.88a4.11,4.11,0,0,1,4.12,4.12Z" transform="translate(-9 -22.5)"/><path class="a" d="M283,112.15H230a5,5,0,0,0-5,5v62a5,5,0,0,0,5,5h53a5,5,0,0,0,5-5v-62A5,5,0,0,0,283,112.15Zm-4,59.69a3.66,3.66,0,0,1-3.66,3.66H237.66a3.66,3.66,0,0,1-3.66-3.66V125.16a3.66,3.66,0,0,1,3.66-3.66h37.68a3.66,3.66,0,0,1,3.66,3.66Z" transform="translate(-9 -22.5)"/></svg>