<svg xmlns="http://www.w3.org/2000/svg" viewBox="0 0 297 297"><defs><style>.a{fill:#3b2d52;}.b{fill:#fff;}</style></defs><rect class="a" width="297" height="297" rx="30"/><rect class="b" x="118.25" y="71.49" width="115.51" height="44" rx="3.06"/><rect class="b" x="118.25" y="126.23" width="66.01" height="44" rx="3.06"/><rect class="b" x="8.24" y="126.5" width="154.02" height="44" rx="3.06" transform="translate(-63.26 233.74) rotate(-90)"/><path class="b" d="M230.7,181.5H121.3a3.06,3.06,0,0,0-3,3.06v37.89a3.06,3.06,0,0,0,3,3.06H230.7a3.06,3.06,0,0,0,3.06-3.06V184.56A3.06,3.06,0,0,0,230.7,181.5Zm-2.44,36a2.52,2.52,0,0,1-2.52,2.52H126.26a2.51,2.51,0,0,1-2.51-2.52v-28a2.51,2.51,0,0,1,2.51-2.52h99.48a2.52,2.52,0,0,1,2.52,2.52Z"/><path class="b" d="M230.7,126.28H198.31a3.06,3.06,0,0,0-3.06,3.06v37.89a3.06,3.06,0,0,0,3.06,3.06H230.7a3.06,3.06,0,0,0,3.06-3.06V129.34A3.06,3.06,0,0,0,230.7,126.28Zm-2.44,36.49A2.23,2.23,0,0,1,226,165H203a2.23,2.23,0,0,1-2.23-2.23V134.23A2.23,2.23,0,0,1,203,132h23a2.23,2.23,0,0,1,2.24,2.23Z"/></svg>